HIERARCHY
ROOT Hips
{
	OFFSET 0.000000 0.000000 0.000000
	CHANNELS 6 Xposition Yposition Zposition Zrotation Yrotation Xrotation 
	JOINT LHipJoint
	{
		OFFSET 0.000000 0.000000 0.000000
		CHANNELS 3 Zrotation Yrotation Xrotation
		JOINT LeftUpLeg
		{
			OFFSET 1.363060 -1.794630 0.839290
			CHANNELS 3 Zrotation Yrotation Xrotation
			JOINT LeftLeg
			{
				OFFSET 2.448110 -6.726130 0.000000
				CHANNELS 3 Zrotation Yrotation Xrotation
				JOINT LeftFoot
				{
					OFFSET 2.562200 -7.039590 0.000000
					CHANNELS 3 Zrotation Yrotation Xrotation
					JOINT LeftToeBase
					{
						OFFSET 0.157640 -0.433110 2.322550
						CHANNELS 3 Zrotation Yrotation Xrotation
						End Site
						{
							OFFSET 0.000000 0.000000 0.000000
						}
					}
				}
			}
		}
	}
	JOINT RHipJoint
	{
		OFFSET 0.000000 0.000000 0.000000
		CHANNELS 3 Zrotation Yrotation Xrotation
		JOINT RightUpLeg
		{
			OFFSET -1.305520 -1.794630 0.839290
			CHANNELS 3 Zrotation Yrotation Xrotation
			JOINT RightLeg
			{
				OFFSET -2.542530 -6.985550 0.000000
				CHANNELS 3 Zrotation Yrotation Xrotation
				JOINT RightFoot
				{
					OFFSET -2.568260 -7.056230 0.000000
					CHANNELS 3 Zrotation Yrotation Xrotation
					JOINT RightToeBase
					{
						OFFSET -0.164730 -0.452590 2.363150
						CHANNELS 3 Zrotation Yrotation Xrotation
						End Site
						{
							OFFSET 0.000000 0.000000 0.000000
						}
					}
				}
			}
		}
	}
	JOINT LowerBack
	{
		OFFSET 0.000000 0.000000 0.000000
		CHANNELS 3 Zrotation Yrotation Xrotation
		JOINT Spine
		{
			OFFSET 0.028270 2.035590 -0.193380
			CHANNELS 3 Zrotation Yrotation Xrotation
			JOINT Spine1
			{
				OFFSET 0.056720 2.048850 -0.042750
				CHANNELS 3 Zrotation Yrotation Xrotation
				JOINT Neck
				{
					OFFSET 0.000000 0.000000 0.000000
					CHANNELS 3 Zrotation Yrotation Xrotation
					JOINT Neck1
					{
						OFFSET -0.054170 1.746240 0.172020
						CHANNELS 3 Zrotation Yrotation Xrotation
						JOINT Head
						{
							OFFSET 0.104070 1.761360 -0.123970
							CHANNELS 3 Zrotation Yrotation Xrotation
							End Site
							{
								OFFSET 0.000000 0.000000 0.000000
							}
						}
					}
				}
				JOINT LeftShoulder
				{
					OFFSET 0.000000 0.000000 0.000000
					CHANNELS 3 Zrotation Yrotation Xrotation
					JOINT LeftArm
					{
						OFFSET 3.362410 1.200890 -0.311210
						CHANNELS 3 Zrotation Yrotation Xrotation
						JOINT LeftForeArm
						{
							OFFSET 4.983000 -0.000000 -0.000000
							CHANNELS 3 Zrotation Yrotation Xrotation
							JOINT LeftHand
							{
								OFFSET 3.483560 -0.000000 -0.000000
								CHANNELS 3 Zrotation Yrotation Xrotation
								JOINT LeftFingerBase
								{
									OFFSET 0.000000 0.000000 0.000000
									CHANNELS 3 Zrotation Yrotation Xrotation
									JOINT LeftHandIndex1
									{
										OFFSET 0.715260 -0.000000 -0.000000
										CHANNELS 3 Zrotation Yrotation Xrotation
										End Site
										{
											OFFSET 0.000000 0.000000 0.000000
										}
									}
								}
								JOINT LThumb
								{
									OFFSET 0.000000 0.000000 0.000000
									CHANNELS 3 Zrotation Yrotation Xrotation
									End Site
									{
										OFFSET 0.000000 0.000000 0.000000
									}
								}
							}
						}
					}
				}
				JOINT RightShoulder
				{
					OFFSET 0.000000 0.000000 0.000000
					CHANNELS 3 Zrotation Yrotation Xrotation
					JOINT RightArm
					{
						OFFSET -3.136600 1.374050 -0.404650
						CHANNELS 3 Zrotation Yrotation Xrotation
						JOINT RightForeArm
						{
							OFFSET -5.241900 -0.000000 -0.000000
							CHANNELS 3 Zrotation Yrotation Xrotation
							JOINT RightHand
							{
								OFFSET -3.444170 -0.000000 -0.000000
								CHANNELS 3 Zrotation Yrotation Xrotation
								JOINT RightFingerBase
								{
									OFFSET 0.000000 0.000000 0.000000
									CHANNELS 3 Zrotation Yrotation Xrotation
									JOINT RightHandIndex1
									{
										OFFSET -0.622530 -0.000000 -0.000000
										CHANNELS 3 Zrotation Yrotation Xrotation
										End Site
										{
											OFFSET 0.000000 0.000000 0.000000
										}
									}
								}
								JOINT RThumb
								{
									OFFSET 0.000000 0.000000 0.000000
									CHANNELS 3 Zrotation Yrotation Xrotation
									End Site
									{
										OFFSET 0.000000 0.000000 0.000000
									}
								}
							}
						}
					}
				}
			}
		}
	}
}
MOTION
Frames: 7
Frame Time: 0.008333
2.837325 17.280450 1.263183 178.028910 -59.848138 -173.158921 -11.949014 4.873806 0.717968 -7.300542 24.661659 -6.831084 -1.889531 -0.327225 6.420759 3.127647 21.902372 -3.416825 1.790600 0.000001 -43.254099 9.550641 -1.838565 4.927374 -3.061888 4.594016 -12.800320 1.976234 0.843881 7.178702 0.675947 3.280586 3.436301 0.076800 -0.000000 -75.205599 -0.261582 -7.195009 -9.169764 0.910735 -7.099403 -4.309370 -1.069971 -7.254035 0.253189 14.196070 -17.105238 -7.272093 0.294791 0.012593 0.205308 0.000000 0.000000 0.000000 19.648728 -3.061228 2.704133 -3.088110 -39.874358 -35.983322 0.377614 -9.852185 -0.056194 7.337646 -4.850921 -0.354746 -0.167417 0.550924 -0.000000 0.000000 0.000000 0.000000 0.000000 0.000000 0.000000 3.189422 -16.438005 -2.943009 29.705039 29.087806 -1.972699 -178.656429 58.525863 179.880057 -12.723901 3.794261 -0.501848 0.243832 -0.619295 -0.000000 0.000000 0.000000 0.000000 0.000000 0.000000 0.000000 
2.819360 17.286083 1.254780 177.784242 -59.350982 -173.055499 -11.952540 4.888674 0.677666 -7.381282 24.837238 -6.627108 -1.869029 -0.311061 6.534843 3.157388 22.215545 -3.138114 1.933900 -0.000001 -43.632900 9.540325 -1.891492 5.039362 -3.255369 5.031126 -12.624472 1.960362 0.837254 6.945090 0.670448 3.223350 3.554517 0.069300 -0.000000 -75.142200 -0.163940 -7.034879 -9.268025 0.929676 -6.958067 -4.314717 -1.013435 -7.128488 0.407051 13.709577 -17.567562 -7.448777 0.294671 0.016487 0.161158 0.000000 0.000000 0.000000 19.781614 -1.262648 2.115410 -6.773128 -41.327006 -32.441559 0.742540 -15.443278 -0.056757 6.746145 -2.739557 -0.196715 -0.125494 0.534776 -0.000000 0.000000 0.000000 0.000000 0.000000 0.000000 0.000000 2.653740 -16.638825 -2.901143 29.521427 27.602853 -2.269549 -178.681566 57.851537 179.880843 -12.699881 3.865498 -0.509337 0.249804 -0.620245 -0.000000 0.000000 0.000000 0.000000 0.000000 0.000000 0.000000 
2.800846 17.289321 1.244199 177.633708 -58.534599 -173.051610 -11.971270 4.884509 0.579192 -7.412641 25.306353 -6.433627 -1.853742 -0.297124 6.732051 3.191249 22.582854 -2.894337 2.068000 -0.000000 -44.039201 9.503105 -1.972416 5.251432 -3.440050 5.893776 -12.574172 1.944060 0.812458 6.838371 0.659552 3.149993 3.615406 0.058400 -0.000001 -74.877900 0.071322 -6.728581 -9.408950 0.937971 -6.690454 -4.351318 -1.055506 -6.871410 0.512044 13.210054 -18.027444 -7.523361 0.268678 0.016435 0.146327 0.000000 0.000000 0.000000 19.674159 0.255893 1.499681 -10.958184 -41.133210 -26.773639 0.976455 -24.005542 -0.051963 5.843856 0.111205 -0.020572 -0.078961 0.513333 -0.000000 0.000000 0.000000 0.000000 0.000000 0.000000 0.000000 2.149288 -16.760967 -2.770547 29.223154 26.016253 -2.549684 -178.754195 57.113949 179.881652 -12.670848 3.964771 -0.520195 0.259958 -0.623612 0.000000 0.000000 0.000000 0.000000 0.000000 0.000000 0.000000 
2.782936 17.289937 1.232174 177.565631 -57.476849 -173.141427 -12.003612 4.862090 0.426918 -7.388858 26.028949 -6.252752 -1.843130 -0.284861 7.010683 3.226295 22.979322 -2.692468 2.187400 0.000001 -44.462100 9.442246 -2.073975 5.537626 -3.612349 7.079732 -12.641595 1.928356 0.768536 6.875713 0.646111 3.083067 3.625772 0.049400 0.000000 -74.445400 0.405913 -6.297774 -9.567305 0.925626 -6.314084 -4.414910 -1.213345 -6.496497 0.540067 12.734218 -18.434339 -7.467124 0.213038 0.011464 0.168292 0.000000 0.000000 0.000000 19.193655 1.143630 0.972841 -14.535528 -39.217406 -21.397925 0.987871 -34.701059 -0.038220 4.406575 2.763736 0.088315 -0.026287 0.494796 0.000000 0.000000 0.000000 0.000000 0.000000 0.000000 0.000000 1.714920 -16.786379 -2.548686 28.836304 24.270726 -2.813064 -178.878695 56.320218 179.882745 -12.630081 4.083028 -0.532905 0.274039 -0.628545 0.000000 0.000000 0.000000 0.000000 0.000000 0.000000 0.000000 
2.766243 17.287729 1.219789 177.571123 -56.260267 -173.310272 -12.046276 4.821992 0.222371 -7.304695 26.949050 -6.080190 -1.836912 -0.272423 7.361335 3.260062 23.378882 -2.539898 2.285700 0.000000 -44.887200 9.364470 -2.182478 5.858581 -3.766372 8.460815 -12.810482 1.914785 0.705664 7.064834 0.634000 3.050890 3.597424 0.048400 -0.000000 -73.892200 0.789870 -5.788165 -9.696829 0.900916 -5.866245 -4.485040 -1.439622 -6.042898 0.511551 12.320277 -18.773165 -7.329804 0.133543 0.002950 0.212190 0.000000 0.000000 0.000000 18.332226 1.510575 0.575645 -17.055061 -36.265626 -17.329692 0.803497 -46.220756 -0.016852 2.433161 4.408648 0.083137 0.027794 0.483189 -0.000000 0.000000 0.000000 0.000000 0.000000 0.000000 0.000000 1.381837 -16.711885 -2.270218 28.351167 22.400982 -3.087314 -179.038732 55.497557 179.884268 -12.576347 4.213137 -0.546575 0.290393 -0.633860 0.000000 0.000000 0.000000 0.000000 0.000000 0.000000 0.000000 
2.751024 17.282539 1.208283 177.634973 -54.969890 -173.538944 -12.096642 4.766065 -0.028709 -7.157796 27.999185 -5.908100 -1.834788 -0.257841 7.769063 3.290707 23.756767 -2.445972 2.355600 0.000000 -45.299000 9.276978 -2.283466 6.172543 -3.893597 9.895817 -13.057284 1.904838 0.625731 7.403651 0.627473 3.081746 3.542991 0.061501 0.000000 -73.274100 1.192868 -5.251887 -9.752256 0.880625 -5.391722 -4.532887 -1.670747 -5.559587 0.491626 11.991233 -19.073675 -7.213266 0.047385 -0.005800 0.248403 0.000000 0.000000 0.000000 17.157281 1.870525 0.289681 -18.667517 -33.329423 -14.415955 0.543343 -57.256579 0.006579 0.199143 4.840147 0.005409 0.078518 0.478354 0.000000 0.000000 0.000000 0.000000 0.000000 0.000000 0.000000 1.160511 -16.593941 -1.993428 27.768860 20.551090 -3.395688 -179.204682 54.691517 179.886254 -12.509602 4.349510 -0.560024 0.306381 -0.638313 0.000000 0.000000 0.000000 0.000000 0.000000 0.000000 0.000000 
2.737054 17.274290 1.198383 177.729854 -53.693646 -173.802692 -12.153172 4.699914 -0.308217 -6.955389 29.102042 -5.729321 -1.835969 -0.240851 8.212456 3.317194 24.094221 -2.417571 2.391100 0.000001 -45.681100 9.185998 -2.368245 6.448651 -3.987800 11.248311 -13.355661 1.899090 0.532771 7.881433 0.630161 3.197312 3.470082 0.092600 0.000000 -72.648300 1.600555 -4.732068 -9.719752 0.873903 -4.929553 -4.544479 -1.873188 -5.087741 0.521847 11.733943 -19.357937 -7.174832 -0.031839 -0.012634 0.260496 0.000000 0.000000 0.000000 15.858298 2.506940 0.084559 -19.868520 -30.837134 -12.289313 0.300589 -67.249020 0.027851 -2.007982 4.471505 -0.073687 0.125117 0.477343 0.000000 0.000000 0.000000 0.000000 0.000000 0.000000 0.000000 1.021419 -16.487458 -1.757339 27.142824 18.839791 -3.720938 -179.355720 53.951547 179.888684 -12.423610 4.481703 -0.571772 0.319846 -0.641020 0.000000 0.000000 0.000000 0.000000 0.000000 0.000000 0.000000 
